<svg width="160" height="320" xmlns="http://www.w3.org/2000/svg" xmlns:xlink="http://www.w3.org/1999/xlink">
 <title>Red Car - Top View</title>
 <defs>
  <linearGradient id="linearGradient3759">
   <stop stop-color="#1a1a1a" offset="0" id="stop3761"/>
   <stop stop-color="#f30000" stop-opacity="0" offset="1" id="stop3763"/>
  </linearGradient>
  <linearGradient xlink:href="#linearGradient3759" id="linearGradient4149" y2="19.592937" x2="13.695145" y1="19.872129" x1="14.678357"/>
  <linearGradient xlink:href="#linearGradient3759" id="linearGradient4153" y2="22.120347" x2="13.615251" y1="22.266809" x1="16.491694"/>
  <linearGradient xlink:href="#linearGradient3759" id="linearGradient4155" y2="19.594922" x2="12.749702" y1="19.799639" x1="15.469636"/>
  <linearGradient xlink:href="#linearGradient3759" id="linearGradient4185" y2="17.003155" x2="13.695145" y1="16.723962" x1="14.678357"/>
  <linearGradient xlink:href="#linearGradient3759" id="linearGradient4187" y2="17.109569" x2="15.211872" y1="17.111929" x1="15.711045"/>
  <linearGradient xlink:href="#linearGradient3759" id="linearGradient4189" y2="17.001172" x2="12.749702" y1="16.796455" x1="15.469636"/>
  <linearGradient xlink:href="#linearGradient3759" id="linearGradient4191" y2="12.678005" x2="7.27572" y1="12.486938" x1="7.532872"/>
  <linearGradient xlink:href="#linearGradient3759" id="linearGradient4193" y2="13.610568" x2="6.363285" y1="12.224447" x1="7.217497"/>
  <linearGradient xlink:href="#linearGradient3759" id="linearGradient4195" y2="18.923824" x2="13.570121" y1="18.969658" x1="17.076677"/>
  <linearGradient xlink:href="#linearGradient3759" id="linearGradient4197" y2="18.726499" x2="13.615251" y1="18.580038" x1="16.491694"/>
  <linearGradient xlink:href="#linearGradient3759" id="linearGradient4199" y2="25.952873" x2="5.286707" y1="25.448389" x1="6.884073"/>
  <linearGradient xlink:href="#linearGradient3759" id="linearGradient4201" y2="27.72477" x2="6.109362" y1="27.50684" x1="7.706729"/>
  <linearGradient xlink:href="#linearGradient3759" id="linearGradient4203" y2="19.486515" x2="15.211872" y1="19.484156" x1="15.711045"/>
  <linearGradient xlink:href="#linearGradient3759" id="linearGradient4205" y2="14.75762" x2="7.27572" y1="14.948688" x1="7.532872"/>
  <linearGradient xlink:href="#linearGradient3759" id="linearGradient4207" y2="13.825057" x2="6.363285" y1="15.211179" x1="7.217497"/>
  <linearGradient xlink:href="#linearGradient3759" id="linearGradient4209" y2="21.923027" x2="13.570121" y1="21.877193" x1="17.076677"/>
  <linearGradient xlink:href="#linearGradient3759" id="linearGradient4211" y2="31.194479" x2="5.286707" y1="31.698963" x1="6.884073"/>
  <linearGradient xlink:href="#linearGradient3759" id="linearGradient4213" y2="34.164553" x2="6.109362" y1="34.382484" x1="7.706729"/>
 </defs>
 <g>
  <title>background</title>
  <rect fill="none" id="canvas_background" height="322" width="162" y="-1" x="-1"/>
 </g>
 <g>
  <title>Layer 1</title>
  <g transform="rotate(-89.87505340576172 77.30839538574219,165.03744506835938) " stroke="null" display="inline" id="layer1">
   <g stroke="null" id="g3890">
    <path stroke="#191919" fill="#000000" fill-opacity="0.996078" stroke-width="14" stroke-miterlimit="4" id="path3855" d="m100.87009,96.996633c-0.459943,0.00264 -1.439424,0.089802 -1.972221,0.276134l-1.067133,0.441819l2.639232,10.58537l-38.054091,0.082839c-0.742811,0.001469 -1.490195,-0.004114 -2.23901,-0.009184c-1.497644,-0.010104 -3.007757,-0.030791 -4.525711,-0.064429c-2.223481,-0.049276 -4.47242,-0.121631 -6.726654,-0.211712c-0.120702,-0.004841 -0.241283,-0.013467 -0.362057,-0.01841c-4.552783,-0.185621 -9.148975,-0.439371 -13.729538,-0.717958c-6.197332,-0.377822 -12.354285,-0.797468 -18.331515,-1.141385c-4.429512,-0.254864 -8.760222,-0.465264 -12.919704,-0.589101c-2.856596,-0.085036 -5.629503,-0.13446 -8.308243,-0.119652c-1.315861,0.007285 -2.612292,0.02748 -3.877811,0.064434c-1.265545,0.036961 -2.555054,0.104647 -3.858774,0.1933c-0.651859,0.044313 -1.304257,0.091376 -1.962719,0.147275c-1.972332,0.167421 -3.977335,0.389217 -5.973946,0.644321c-0.003075,0.00029 -0.006437,-0.000288 -0.009512,0c-1.33314,0.170417 -2.658191,0.360979 -3.982624,0.56148c-1.324427,0.200512 -2.644459,0.411736 -3.944509,0.635128c-1.296932,0.222856 -2.582573,0.461078 -3.839704,0.699554c-0.003045,0.000592 -0.006469,-0.00059 -0.009514,0c-0.630026,0.119551 -1.240842,0.236873 -1.857926,0.358977c-1.848071,0.36573 -3.638505,0.741104 -5.335572,1.113773c-0.003075,0.000584 -0.006433,-0.000602 -0.009514,0c-1.133114,0.248863 -2.221824,0.493412 -3.268034,0.736365c-2.092727,0.48553 -3.998766,0.952753 -5.649978,1.371501c-2.476826,0.628119 -4.385118,1.15674 -5.516602,1.472743c-0.754208,0.21083 -1.1624,0.331365 -1.1624,0.331365l-4.173172,1.104563c-0.275141,0.073255 -0.542151,0.204081 -0.800345,0.386601c-0.087716,0.061995 -0.171453,0.128392 -0.257244,0.202493c-0.335253,0.288545 -0.655828,0.66883 -0.962316,1.132176c-0.001394,0.002066 0.0014,0.007146 0,0.009184c-0.152549,0.231142 -0.311745,0.483192 -0.457336,0.754786c-0.001278,0.002354 0.001296,0.006832 0,0.009189c-0.145611,0.272071 -0.289986,0.56382 -0.428743,0.874435c-0.00113,0.00264 0.001126,0.006548 0,0.009194c-1.118062,2.506452 -2.0184,6.224213 -2.724955,10.668191c-0.000465,0.002959 0.000459,0.006246 0,0.009189c-0.010969,0.068966 -0.017718,0.142388 -0.028583,0.211707c-0.153857,0.981288 -0.302471,2.00241 -0.438286,3.046745c-0.009288,0.071477 -0.019369,0.139972 -0.028583,0.211714c-0.152924,1.190898 -0.288648,2.416024 -0.419217,3.672658c-0.000313,0.002943 0.000299,0.006212 0,0.009177c-0.065113,0.626927 -0.130834,1.265036 -0.190566,1.905369c-0.00027,0.002949 0.00028,0.006148 0,0.009184c-0.059704,0.64044 -0.117058,1.281077 -0.171503,1.932983c-0.000238,0.002938 0.000268,0.006148 0,0.009184c-0.109063,1.307097 -0.20677,2.634979 -0.295349,3.976414c-0.000212,0.002965 0.00019,0.006146 0,0.009182c-0.266061,4.030641 -0.445023,8.185143 -0.543085,12.242201c-0.000092,0.003068 0.000074,0.006114 0,0.009173c-0.065384,2.706742 -0.095317,5.364719 -0.095317,7.925332c0,0.285007 0.0084,0.578153 0.009532,0.865219c-0.001132,0.287076 -0.009532,0.580203 -0.009532,0.86523c0,2.560593 0.029933,5.218569 0.095287,7.925226c0.000072,0.003102 -0.000074,0.006125 0,0.009194c0.098068,4.057047 0.277042,8.211552 0.543085,12.242188c0.00019,0.003046 -0.000196,0.006212 0,0.009194c0.088592,1.341434 0.186287,2.669305 0.295367,3.976404c0.00025,0.003025 -0.00027,0.006223 0,0.009184c0.054425,0.651911 0.111793,1.292536 0.171483,1.932988c0.000282,0.003036 -0.000268,0.006223 0,0.009173c0.059734,0.640353 0.125453,1.278442 0.190566,1.905362c0.000301,0.003004 -0.000311,0.006235 0,0.009194c0.130571,1.256639 0.266295,2.481771 0.419217,3.672663c0.009202,0.071731 0.019297,0.140232 0.028583,0.211712c0.135816,1.044319 0.284428,2.065459 0.438288,3.046719c0.010865,0.069335 0.017614,0.142768 0.028583,0.211714c0.000459,0.002959 -0.000465,0.006352 0,0.009216c0.706555,4.443968 1.606911,8.161732 2.724955,10.668181c0.00113,0.002645 -0.001132,0.006645 0,0.009194c0.138755,0.310603 0.283132,0.602374 0.428741,0.874422c0.001278,0.002364 -0.001278,0.006809 0,0.009194c0.145599,0.271594 0.304775,0.52364 0.457344,0.754781c0.001394,0.002082 -0.001412,0.007123 0,0.009184c0.30648,0.463347 0.627037,0.843643 0.962296,1.132183c0.085805,0.074105 0.16954,0.140512 0.257258,0.202497c0.258194,0.182516 0.525202,0.313347 0.800343,0.386606l4.173178,1.104557c0,0 0.408188,0.120542 1.162394,0.331356c1.131495,0.316013 3.039765,0.844619 5.516584,1.472743c1.651218,0.418753 3.557268,0.885992 5.649996,1.371522c1.046199,0.242937 2.13492,0.487491 3.268036,0.73637c0.003111,0.000576 0.006437,-0.000608 0.009512,0c1.697069,0.372663 3.487489,0.748027 5.33556,1.113752c0.617096,0.122104 1.227912,0.239436 1.857928,0.35898c0.003087,0.000597 0.006461,-0.000608 0.009524,0c1.25713,0.238472 2.542771,0.476705 3.839704,0.699552c1.300052,0.223401 2.620081,0.434616 3.944515,0.635139c1.324415,0.200491 2.649466,0.391063 3.982618,0.561468c0.003093,0.000282 0.006439,-0.000293 0.009514,0c1.996609,0.255104 4.001601,0.476899 5.973926,0.644333c0.658474,0.05589 1.31086,0.102946 1.962731,0.147278c1.303732,0.088644 2.593218,0.15632 3.858762,0.193292c1.265543,0.03695 2.561962,0.057139 3.877823,0.064436c2.678752,0.014799 5.451635,-0.03462 8.308231,-0.119665c4.159495,-0.123837 8.490206,-0.334239 12.91973,-0.589092c5.977192,-0.343933 12.134145,-0.763552 18.331477,-1.141389c4.580575,-0.278587 9.176792,-0.532334 13.729574,-0.717973c0.120765,-0.004933 0.241343,-0.013552 0.362057,-0.018398c2.254222,-0.090087 4.503174,-0.162436 6.726632,-0.211704c1.517976,-0.033643 3.028079,-0.054328 4.525709,-0.064445c0.748839,-0.005063 1.496223,-0.010743 2.239034,-0.009184l38.054043,0.082844l-2.639158,10.585359l1.067083,0.441814c0.532821,0.186332 1.512305,0.273514 1.972271,0.276148c0.258694,0.001474 0.535093,-0.021814 0.819394,-0.073629c0.094694,-0.017229 0.190071,-0.041558 0.285817,-0.064434c0.092883,-0.022281 0.192908,-0.046145 0.285841,-0.073639c0.191612,-0.056867 0.385253,-0.124164 0.57168,-0.202509c0.555394,-0.233722 1.077575,-0.568905 1.457743,-0.975688c0.003057,-0.003144 0.006627,-0.006072 0.009536,-0.009194c0.190488,-0.205545 0.339106,-0.427459 0.447788,-0.671949l3.706339,-9.223064l33.518806,0.07365c0.227709,0.110135 0.450062,0.219477 0.676475,0.322172c0.908316,0.412216 1.802179,0.764952 2.69636,1.067728c0.445831,0.150975 0.889608,0.287325 1.333898,0.41422c1.554932,0.444006 3.106217,0.751551 4.678144,0.957268c0.898264,0.117604 1.806752,0.204396 2.724973,0.266932c0.459061,0.031257 0.92502,0.05306 1.391051,0.07366c0.932064,0.041222 1.871585,0.062677 2.83928,0.073629c1.935292,0.021824 3.957307,0 6.097784,0c3.173935,0 6.196096,-0.156483 9.079983,-0.460235c1.153585,-0.121518 2.283987,-0.264362 3.391912,-0.432621c2.21585,-0.336527 4.338132,-0.771402 6.374111,-1.288665c0.508975,-0.129303 1.017022,-0.264698 1.514919,-0.404995c1.493669,-0.420835 2.930867,-0.891131 4.325637,-1.408309c0.464883,-0.1724 0.927464,-0.341829 1.381513,-0.524658c0.908097,-0.365693 1.7934,-0.753166 2.658259,-1.159797c0.432454,-0.203323 0.864539,-0.412552 1.286208,-0.625902c0.843459,-0.426734 1.666791,-0.877774 2.467747,-1.343896c0.400465,-0.233063 0.79154,-0.475252 1.181415,-0.717962c1.949599,-1.213575 3.769411,-2.540632 5.45946,-3.985619c1.35026,-1.154496 2.622576,-2.379911 3.811109,-3.672652c0.001541,-0.001767 -0.001517,-0.007493 0,-0.009194c0.295892,-0.321913 0.59056,-0.645536 0.876573,-0.975689c0.001515,-0.001766 -0.001517,-0.007393 0,-0.009182c0.285937,-0.330185 0.571876,-0.665032 0.848006,-1.003314c0.001517,-0.001757 -0.001541,-0.007342 0,-0.009194c0.831011,-1.01859 1.619935,-2.067398 2.362906,-3.157189c0.001515,-0.002071 -0.001541,-0.007068 0,-0.009194c0.246588,-0.361886 0.496625,-0.725876 0.733627,-1.09534c0.001541,-0.002364 -0.001517,-0.007004 0,-0.009194c0.713599,-1.112841 1.392396,-2.254023 2.019885,-3.433335c0.001248,-0.002354 -0.001222,-0.006798 0,-0.009194c0.208266,-0.391496 0.410933,-0.788814 0.609783,-1.187391c0.001248,-0.002363 -0.001222,-0.006743 0,-0.009205c0.198804,-0.398609 0.401248,-0.800252 0.590732,-1.2058c0.001248,-0.002647 -0.001198,-0.00669 0,-0.009184c0.380046,-0.813664 0.743361,-1.635244 1.086184,-2.476046c0.001198,-0.002647 -0.001222,-0.006603 0,-0.009194c0.170824,-0.419112 0.333775,-0.844608 0.495453,-1.270257c0.00088,-0.002634 -0.00093,-0.006516 0,-0.009194c0.161578,-0.425659 0.323892,-0.856545 0.476375,-1.288633c0.152459,-0.432143 0.304427,-0.868633 0.447812,-1.307054c0.00093,-0.002647 -0.00088,-0.006473 0,-0.009194c0.143361,-0.438474 0.284887,-0.880863 0.419247,-1.325475c0.000906,-0.002959 -0.00093,-0.006397 0,-0.009162c0.134264,-0.444665 0.265274,-0.893202 0.390634,-1.343907c0.000906,-0.002949 -0.000904,-0.006386 0,-0.009182c0.377502,-1.357904 0.722109,-2.74106 1.019494,-4.151308l0,-0.009173c0.098655,-0.468161 0.186329,-0.943844 0.276327,-1.417514l0,-0.009205c0.632552,-3.333816 1.055541,-6.792879 1.267181,-10.373634c0.000146,-0.003057 -0.000194,-0.006233 0,-0.009216c0.029885,-0.508937 0.054489,-1.023729 0.07623,-1.537166c0.000096,-0.003025 -0.000122,-0.006201 0,-0.009162c0.043456,-1.030039 0.075201,-2.063972 0.085717,-3.111195c0,-0.003036 -0.000024,-0.006223 0,-0.009184c0.005209,-0.525168 0.003057,-1.053892 0,-1.583202c0,-0.187275 -0.006701,-0.374495 -0.009464,-0.561487c0.003081,-0.186994 0.009464,-0.374214 0.009464,-0.561479c0.003057,-0.529289 0.005209,-1.058045 0,-1.583192c-0.000024,-0.003004 0,-0.006159 0,-0.009194c-0.01037,-1.047224 -0.04226,-2.081156 -0.085717,-3.111185c-0.000122,-0.002993 0.000096,-0.006148 0,-0.009184c-0.021645,-0.513405 -0.046345,-1.028218 -0.07623,-1.537166c-0.000194,-0.003004 0.000146,-0.006137 0,-0.009184c-0.21164,-3.580765 -0.634629,-7.039855 -1.267181,-10.373666l0,-0.009189c-0.089998,-0.473662 -0.177672,-0.949353 -0.276327,-1.417508l0,-0.009193c-0.297385,-1.410229 -0.641992,-2.793389 -1.019494,-4.151297c-0.000904,-0.002943 0.000906,-0.006272 0,-0.009184c-0.12536,-0.450688 -0.256371,-0.899236 -0.390634,-1.34388c-0.00093,-0.002954 0.000906,-0.006278 0,-0.009189c-0.13436,-0.444612 -0.275886,-0.88701 -0.419247,-1.325475c-0.00088,-0.002645 0.00093,-0.006558 0,-0.009193c-0.143385,-0.438421 -0.295353,-0.874918 -0.447812,-1.307051c-0.152481,-0.432093 -0.314796,-0.862963 -0.476375,-1.288654c-0.00093,-0.002629 0.00088,-0.00656 0,-0.009184c-0.161679,-0.425638 -0.324629,-0.85115 -0.495453,-1.270251c-0.001222,-0.002634 0.001198,-0.006553 0,-0.009182c-0.342822,-0.840808 -0.706138,-1.662366 -1.086184,-2.476047c-0.001198,-0.002363 0.001248,-0.006564 0,-0.009194c-0.18946,-0.40553 -0.39193,-0.807201 -0.590732,-1.205805c-0.001222,-0.002359 0.001248,-0.006869 0,-0.009189c-0.19885,-0.398565 -0.401517,-0.795905 -0.609783,-1.187402c-0.001222,-0.002357 0.001248,-0.006862 0,-0.009198c-0.627489,-1.179298 -1.306286,-2.320495 -2.019885,-3.43333c-0.001517,-0.002066 0.001541,-0.006853 0,-0.009189c-0.237001,-0.369454 -0.487039,-0.733477 -0.733627,-1.095352c-0.001541,-0.002066 0.001515,-0.007113 0,-0.009178c-0.742971,-1.089807 -1.531868,-2.138591 -2.362906,-3.157203c-0.001541,-0.001757 0.001517,-0.007466 0,-0.009184c-0.27613,-0.338284 -0.562069,-0.673146 -0.848006,-1.003308c-0.001517,-0.001757 0.001515,-0.007459 0,-0.009184c-0.285987,-0.330173 -0.580681,-0.653793 -0.876573,-0.9757c-0.001517,-0.00176 0.001541,-0.007448 0,-0.009187c-1.188533,-1.292754 -2.460849,-2.518168 -3.811109,-3.672647c-1.690049,-1.445003 -3.509861,-2.772052 -5.45946,-3.98563c-0.389901,-0.242722 -0.780974,-0.484891 -1.181415,-0.717957c-0.800906,-0.466139 -1.624238,-0.917163 -2.467747,-1.343885c-0.421669,-0.213356 -0.853754,-0.422608 -1.286208,-0.625918c-0.864883,-0.406631 -1.750212,-0.794111 -2.658259,-1.159786c-0.454049,-0.182841 -0.916632,-0.352271 -1.381513,-0.524658c-1.394768,-0.517199 -2.831968,-0.987474 -4.325637,-1.408312c-0.497898,-0.140285 -1.005943,-0.275701 -1.514919,-0.405007c-2.035978,-0.517256 -4.15826,-0.952129 -6.374111,-1.288653c-1.107925,-0.168275 -2.238327,-0.311116 -3.391912,-0.432621c-2.883839,-0.304153 -5.905976,-0.460611 -9.079935,-0.460611c-2.140501,0 -4.162514,-0.021823 -6.097782,0c-0.967671,0.010944 -1.907242,0.032415 -2.839306,0.073639c-0.466005,0.020586 -0.931988,0.042384 -1.391025,0.073629c-0.918221,0.062551 -1.826684,0.149335 -2.724949,0.266948c-1.571951,0.205737 -3.123214,0.513263 -4.678168,0.957286c-0.44429,0.126877 -0.888067,0.263218 -1.333898,0.4142c-0.894157,0.302778 -1.788044,0.655509 -2.69636,1.067746c-0.226437,0.102685 -0.448766,0.212021 -0.676475,0.322165l-33.518832,0.073629l-3.706313,-9.223064c-0.108658,-0.244483 -0.257302,-0.466374 -0.447838,-0.671942c-0.003031,-0.003093 -0.006479,-0.006066 -0.009512,-0.009194c-0.380142,-0.406789 -0.902349,-0.741955 -1.457717,-0.975686c-0.186453,-0.078329 -0.380046,-0.145644 -0.571682,-0.202507c-0.092957,-0.027482 -0.192956,-0.051371 -0.285817,-0.073643c-0.095744,-0.02288 -0.191147,-0.047194 -0.285863,-0.064432c-0.2843,-0.051806 -0.560653,-0.075103 -0.81942,-0.073629l0,-0.000114l0,0l0,0l0,0.000002z"/>
    <path stroke="null" fill="#ffff00" id="path2853" d="m100.87009,96.996633c-0.459943,0.00264 -1.439424,0.090161 -1.972221,0.276134l-1.067133,0.441819l2.639232,10.557751l-38.054091,0.082844c-23.770346,0.048719 -50.77157,-3.38839 -71.020242,-2.798214c-20.248698,0.590176 -46.381373,8.247376 -46.381373,8.247376l-4.173178,1.113763c-5.869554,1.56001 -7.84139,28.67939 -7.84139,49.125273c0,0.327842 0.008132,0.663643 0.009544,0.994098c-0.001412,0.330466 -0.009544,0.666266 -0.009544,0.994098c0,20.445903 1.971837,47.565262 7.84139,49.125283l4.173178,1.113773c0,0 26.132674,7.657188 46.381373,8.247366c20.248672,0.590176 47.249896,-2.846954 71.020242,-2.798219l38.054091,0.082844l-2.639232,10.557744l1.067133,0.441816c0.532797,0.185984 1.512255,0.273501 1.972221,0.276146c0.258769,0.001474 0.535119,-0.021901 0.81942,-0.07365c0.094766,-0.017195 0.190119,-0.041579 0.285865,-0.064413c0.092835,-0.022215 0.192858,-0.046209 0.285815,-0.07365c0.191612,-0.056758 0.385231,-0.124315 0.571682,-0.202509c0.555368,-0.233277 1.077575,-0.560448 1.457717,-0.966461c0.003057,-0.003165 0.006627,-0.006148 0.009514,-0.009205c0.190536,-0.205175 0.339178,-0.427926 0.447836,-0.671936l3.706315,-9.204666l33.51883,0.07365c7.287026,3.517622 13.87603,3.157189 22.437965,3.157189c40.626668,0 57.205927,-25.503912 57.014414,-59.314831c0,-0.229798 -0.005772,-0.461146 -0.00944,-0.690357c0.003668,-0.22919 0.00944,-0.460538 0.00944,-0.690347c0.191514,-33.810898 -16.387746,-59.314821 -57.01439,-59.314821c-8.561959,0 -15.150963,-0.360423 -22.437989,3.1572l-33.51883,0.073639l-3.706315,-9.204666c-0.108658,-0.24401 -0.2573,-0.466759 -0.447836,-0.671942c-0.003033,-0.003062 -0.006481,-0.006061 -0.009514,-0.00918c-0.380142,-0.406031 -0.902349,-0.733198 -1.457717,-0.966493c-0.186451,-0.078185 -0.380044,-0.145744 -0.571682,-0.202498c-0.092957,-0.027439 -0.192956,-0.051436 -0.285815,-0.073652c-0.095746,-0.022849 -0.191099,-0.047219 -0.285865,-0.064425c-0.284276,-0.051721 -0.560651,-0.075108 -0.81942,-0.073634l0,-0.00005l0,0.000014z"/>
    <path stroke="null" opacity="0.9" fill="#262626" fill-opacity="0.996078" id="path3643" d="m36.786199,203.488854c-10.172465,0 -19.911634,0.530209 -28.907354,1.491174c7.823624,14.348574 29.874963,8.914618 62.673912,9.287487c15.149007,0.172226 27.301067,0.553552 37.053612,0.699562c-14.378648,-6.873067 -40.711322,-11.478224 -70.82017,-11.478224z"/>
    <path stroke="null" opacity="0.5" fill="#000000" fill-opacity="0.996078" id="path3658" d="m36.786199,203.488854c-0.977612,0 -1.946151,0.008706 -2.915509,0.018421c0.249475,4.763146 1.95987,8.912037 4.449493,11.441395c1.424286,-0.02227 2.894992,-0.057886 4.401853,-0.101255c-2.611645,-2.413043 -4.4492,-6.547231 -4.792487,-11.358561c-0.381513,-0.001453 -0.760615,0 -1.14335,0z"/>
    <path stroke="#191919" fill="#212121" fill-rule="nonzero" stroke-width="5" stroke-miterlimit="4" id="path3707" d="m216.270993,195.319129l-1.553022,0.174881c-6.568854,0.740113 -11.49087,7.651962 -11.976419,16.062142l-0.114356,2.098645l1.600638,-1.426717c4.844518,-4.324109 8.629458,-9.575031 11.404811,-15.537463l0.638348,-1.371488z"/>
    <path stroke="#292929" opacity="0.5" fill="none" stroke-width="6" stroke-linecap="round" stroke-linejoin="round" stroke-miterlimit="4" id="path3715" d="m153.60125,198.558597c0,0 24.293042,-6.655772 32.128514,-9.420205c8.183139,-2.887125 30.141375,-11.530321 30.141375,-11.530321c0,0 -2.665056,12.509414 -9.294047,17.059709c-23.544788,16.161834 -70.94427,15.862561 -70.94427,15.862561"/>
    <path stroke="null" fill="url(#linearGradient4149)" id="path3757" d="m179.972969,192.473163l-1.352948,0.690347c0.30159,0.340733 0.547444,0.715349 0.724139,1.132171c1.462854,3.451225 -3.273299,8.611421 -8.193923,10.539346c-0.157543,0.061713 -0.552703,0.24759 -1.038544,0.487838l4.154151,-1.141387c5.276409,-2.491193 8.375556,-6.798767 7.012482,-10.014686c-0.279334,-0.658981 -0.724187,-1.227095 -1.305333,-1.693628l-0.000024,0z"/>
    <path stroke="null" fill="url(#linearGradient4203)" id="path3787" d="m182.59024,191.159147l-1.35295,0.690357c0.301566,0.340744 0.547446,0.71536 0.724139,1.132183c1.46283,3.451225 -3.273299,8.61143 -8.193921,10.539334c-0.157594,0.061723 -0.552753,0.24759 -1.038544,0.487839l4.154101,-1.141389c5.276457,-2.491182 8.375582,-6.798767 7.012458,-10.014654c-0.279286,-0.659024 -0.724163,-1.227116 -1.305259,-1.693671l-0.000026,0l0.000002,0z"/>
    <path stroke="null" fill="url(#linearGradient4155)" id="path3752" d="m184.476645,190.742585l-1.352974,0.690347c0.301566,0.340744 0.547446,0.71536 0.724115,1.132183c1.462854,3.451236 -3.273299,8.611408 -8.193873,10.539334c-0.157594,0.061723 -0.552751,0.2476 -1.038544,0.48785l4.154151,-1.141389c5.276383,-2.491193 8.375532,-6.798767 7.012434,-10.014665c-0.279312,-0.659003 -0.724189,-1.227116 -1.305285,-1.69366l-0.000024,0z"/>
    <path stroke="null" fill="url(#linearGradient4205)" id="path3735" d="m189.631285,189.483906l-1.886527,0.543058c0.292761,0.504548 0.504451,1.040459 0.619321,1.610828c0.951065,4.722771 -6.391156,10.098191 -13.119755,11.340129c-1.035096,0.191059 -8.806567,2.526072 -9.804758,2.593346l0,1.215015l12.634477,-3.578228c8.01427,-1.618927 13.704593,-6.612034 12.767296,-11.266501c-0.181609,-0.90181 -0.596406,-1.725939 -1.210028,-2.457648l-0.000024,0l-0.000002,0z"/>
    <path stroke="null" fill="url(#linearGradient4207)" id="path3783" d="m189.631285,189.483906l-1.886527,0.543058c0.292761,0.504548 0.504451,1.040459 0.619321,1.610828c0.951065,4.722771 -6.391156,10.098191 -13.119755,11.340129c-1.035096,0.191059 -8.806567,2.526072 -9.804758,2.593346l0,1.215015l12.634477,-3.578228c8.01427,-1.618927 13.704593,-6.612034 12.767296,-11.266501c-0.181609,-0.90181 -0.596406,-1.725939 -1.210028,-2.457648l-0.000024,0l-0.000002,0z"/>
    <path stroke="null" fill="url(#linearGradient4209)" id="path3799" d="m176.056114,193.833797l-1.208611,0.61672c0.269407,0.304391 0.489044,0.639052 0.646858,1.011401c1.306825,3.083082 -2.924091,7.692783 -7.319746,9.415012c-0.140793,0.055165 -0.493813,0.221211 -0.927759,0.435808l3.710961,-1.01961c4.713532,-2.225454 7.482062,-6.073508 6.264403,-8.946342c-0.249525,-0.588703 -0.646933,-1.09623 -1.166032,-1.512988l-0.000074,0l0,-0.000002z"/>
    <path stroke="null" fill="url(#linearGradient4153)" id="path3803" d="m171.846373,194.886325l-1.208609,0.616718c0.269381,0.304369 0.48902,0.639031 0.646858,1.011401c1.306825,3.083061 -2.924093,7.692762 -7.31982,9.415012c-0.140719,0.055165 -0.493765,0.2212 -0.927711,0.435797l3.710963,-1.019621c4.71353,-2.225443 7.48206,-6.073476 6.264401,-8.94631c-0.249549,-0.588714 -0.646933,-1.096219 -1.166056,-1.512967l-0.000026,-0.000032z"/>
    <path stroke="null" fill="url(#linearGradient4211)" id="rect3861" d="m-14.153591,200.686818c2.528469,-0.595967 4.72143,-0.435568 6.036104,1.704633l-0.76021,5.271457c-2.096177,1.818334 -4.192353,1.458269 -6.288528,0.045796l1.012632,-7.021886l0,0l0.000002,0z"/>
    <path stroke="null" fill="url(#linearGradient4213)" id="path3864" d="m-7.971521,201.648045c2.484938,-0.356467 4.624217,-0.168735 5.745043,1.622396l-0.72354,5.017307c-1.976903,0.876224 -3.958407,1.534477 -5.985297,0.043553l0.963795,-6.683256l0,0z"/>
    <path stroke="null" opacity="0.9" fill="#191919" fill-rule="nonzero" stroke-width="5" id="path4025" d="m36.786199,202.756483c-10.199868,0 -19.968078,0.527065 -28.993109,1.491164l-1.114749,0.119652l0.524028,0.957279c2.033961,3.730299 5.049507,6.218944 8.86086,7.787151c3.811353,1.568208 8.406555,2.242281 13.748626,2.485251c10.684131,0.485953 24.377474,-0.775022 40.731363,-0.589092c15.140595,0.172128 27.29033,0.553378 37.053638,0.699552l0.342993,-1.399103c-14.588869,-6.973574 -40.964367,-11.551854 -71.15365,-11.551854l0,0.000002zm0,1.472753c27.796959,0 52.364579,3.970105 67.104342,9.931831c-9.132174,-0.171543 -19.882654,-0.473062 -33.328272,-0.625934c-16.445034,-0.186939 -30.17703,1.07575 -40.674197,0.598308c-5.248577,-0.23872 -9.685486,-0.914701 -13.234122,-2.374802c-3.187105,-1.311349 -5.636032,-3.285505 -7.469797,-6.157903c8.630742,-0.878664 17.907804,-1.371501 27.602046,-1.371501z"/>
    <path stroke="#191919" opacity="0.9" fill="#262626" fill-opacity="0.996078" stroke-width="5" stroke-miterlimit="4" id="rect2864" d="m-5.850827,130.483182l-23.705196,3.672663c-8.277971,1.282501 -14.923646,14.365976 -15.54938,30.881631c0.625734,16.515655 7.271409,29.599122 15.54938,30.881641l23.705196,3.672663c4.053796,0 7.317324,-3.152851 7.317324,-7.069178l0,-54.970232c0,-3.916338 -3.263528,-7.069189 -7.31735,-7.069189l0.000026,0z"/>
    <path stroke="#191919" opacity="0.9" fill="#262626" fill-opacity="0.996078" stroke-width="5" stroke-miterlimit="4" stroke-dashoffset="0" id="path3703" d="m125.699548,120.404076c-0.905284,0 -1.796799,0.097851 -2.677285,0.285353c-0.003179,-0.002954 -0.006383,-0.006185 -0.009512,-0.009184l-19.46535,3.626634c-5.405047,1.945403 -9.756434,4.203794 -9.756434,9.425571l0,62.610093c0,5.221777 4.351387,7.480168 9.756434,9.425582l19.46535,3.626618c0.003203,-0.002993 0.006333,-0.006212 0.009512,-0.009184c0.880486,0.187525 1.772001,0.285364 2.677285,0.285364c13.840762,0 25.061494,-16.896126 25.09622,-44.633416c-0.034727,-27.73729 -11.255458,-44.633393 -25.09622,-44.633393l0,-0.000039z"/>
    <path stroke="null" opacity="0.9" fill="#262626" fill-opacity="0.996078" id="path4157" d="m36.786199,126.586038c-10.172465,0 -19.911634,-0.530193 -28.907354,-1.491164c7.823624,-14.348564 29.874963,-8.914623 62.673912,-9.287493c15.149007,-0.172231 27.301067,-0.553542 37.053612,-0.699557c-14.378648,6.873057 -40.711322,11.478213 -70.82017,11.478213z"/>
    <path stroke="null" opacity="0.5" fill="#000000" fill-opacity="0.996078" id="path4159" d="m36.786199,126.586038c-0.977612,0 -1.946151,-0.00869 -2.915509,-0.01841c0.249475,-4.763162 1.95987,-8.912031 4.449493,-11.441387c1.424286,0.022263 2.894992,0.057885 4.401853,0.101242c-2.611645,2.413049 -4.4492,6.547254 -4.792487,11.358556c-0.381513,0.001464 -0.760615,0 -1.14335,0z"/>
    <path stroke="#191919" fill="#212121" fill-rule="nonzero" stroke-width="5" stroke-miterlimit="4" id="path4161" d="m216.270993,134.75578l-1.553022,-0.174883c-6.568854,-0.740117 -11.49087,-7.651967 -11.976419,-16.062142l-0.114356,-2.098655l1.600638,1.426724c4.844518,4.324109 8.629458,9.575024 11.404811,15.537466l0.638348,1.37149z"/>
    <path stroke="#292929" opacity="0.5" fill="none" stroke-width="6" stroke-linecap="round" stroke-linejoin="round" stroke-miterlimit="4" id="path4163" d="m153.60125,131.516305c0,0 24.293042,6.65575 32.128514,9.420212c8.183139,2.887112 30.141375,11.530303 30.141375,11.530303c0,0 -2.665056,-12.509396 -9.294047,-17.05972c-23.544788,-16.161818 -70.94427,-15.862518 -70.94427,-15.862518"/>
    <path stroke="null" fill="url(#linearGradient4185)" id="path4165" d="m179.972969,137.601752l-1.352948,-0.690352c0.30159,-0.340735 0.547444,-0.71536 0.724139,-1.132178c1.462854,-3.451241 -3.273299,-8.611414 -8.193923,-10.539328c-0.157543,-0.061736 -0.552703,-0.247611 -1.038544,-0.48785l4.154151,1.141376c5.276409,2.491193 8.375556,6.798767 7.012482,10.014676c-0.279334,0.659008 -0.724187,1.227111 -1.305333,1.693657l-0.000024,0z"/>
    <path stroke="null" fill="url(#linearGradient4187)" id="path4167" d="m182.59024,138.915766l-1.35295,-0.690352c0.301566,-0.340733 0.547446,-0.715354 0.724139,-1.13216c1.46283,-3.451246 -3.273299,-8.611432 -8.193921,-10.539344c-0.157594,-0.061741 -0.552753,-0.247606 -1.038544,-0.487855l4.154101,1.141387c5.276457,2.491193 8.375582,6.798778 7.012458,10.01467c-0.279286,0.659008 -0.724163,1.227116 -1.305259,1.693655l-0.000026,0l0.000002,0z"/>
    <path stroke="null" fill="url(#linearGradient4189)" id="path4169" d="m184.476645,139.332313l-1.352974,-0.690341c0.301566,-0.340739 0.547446,-0.715365 0.724115,-1.132176c1.462854,-3.451252 -3.273299,-8.611432 -8.193873,-10.539339c-0.157594,-0.061736 -0.552751,-0.247618 -1.038544,-0.487839l4.154151,1.141365c5.276383,2.491198 8.375532,6.798778 7.012434,10.01467c-0.279312,0.659024 -0.724189,1.227121 -1.305285,1.69366l-0.000024,0z"/>
    <path stroke="null" fill="url(#linearGradient4191)" id="path4171" d="m189.631285,140.591018l-1.886527,-0.543074c0.292761,-0.504509 0.504451,-1.040438 0.619321,-1.610811c0.951065,-4.722777 -6.391156,-10.098199 -13.119755,-11.34014c-1.035096,-0.191053 -8.806567,-2.526061 -9.804758,-2.593346l0,-1.215012l12.634477,3.578235c8.01427,1.618925 13.704593,6.612039 12.767296,11.266506c-0.181609,0.901805 -0.596406,1.725921 -1.210028,2.457641l-0.000024,0l-0.000002,0z"/>
    <path stroke="null" fill="url(#linearGradient4193)" id="path4173" d="m189.631285,140.591018l-1.886527,-0.543074c0.292761,-0.504509 0.504451,-1.040438 0.619321,-1.610811c0.951065,-4.722777 -6.391156,-10.098199 -13.119755,-11.34014c-1.035096,-0.191053 -8.806567,-2.526061 -9.804758,-2.593346l0,-1.215012l12.634477,3.578235c8.01427,1.618925 13.704593,6.612039 12.767296,11.266506c-0.181609,0.901805 -0.596406,1.725921 -1.210028,2.457641l-0.000024,0l-0.000002,0z"/>
    <path stroke="null" fill="url(#linearGradient4195)" id="path4175" d="m176.056114,136.2411l-1.208611,-0.616713c0.269407,-0.30438 0.489044,-0.639043 0.646858,-1.011403c1.306825,-3.083077 -2.924091,-7.692765 -7.319746,-9.415016c-0.140793,-0.055154 -0.493813,-0.221195 -0.927759,-0.435803l3.710961,1.019613c4.713532,2.225443 7.482062,6.073494 6.264403,8.946342c-0.249525,0.588692 -0.646933,1.09621 -1.166032,1.512979l-0.000074,0z"/>
    <path stroke="null" fill="url(#linearGradient4197)" id="path4177" d="m171.846373,135.188574l-1.208609,-0.616702c0.269381,-0.30438 0.48902,-0.639043 0.646858,-1.011408c1.306825,-3.083072 -2.924093,-7.692765 -7.31982,-9.415011c-0.140719,-0.055149 -0.493765,-0.221189 -0.927711,-0.435803l3.710963,1.019615c4.71353,2.225447 7.48206,6.073492 6.264401,8.946319c-0.249549,0.588698 -0.646933,1.096214 -1.166056,1.512979l-0.000026,0.000011z"/>
    <path stroke="null" fill="url(#linearGradient4199)" id="path4179" d="m-14.153591,129.388068c2.528469,0.595983 4.72143,0.435586 6.036104,-1.704606l-0.76021,-5.271467c-2.096177,-1.81834 -4.192353,-1.458269 -6.288528,-0.045786l1.012632,7.021859l0,0l0.000002,0z"/>
    <path stroke="null" fill="url(#linearGradient4201)" id="path4181" d="m-7.971521,128.426881c2.484938,0.356465 4.624217,0.168719 5.745043,-1.622417l-0.72354,-5.017269c-1.976903,-0.876224 -3.958407,-1.534494 -5.985297,-0.043574l0.963795,6.683261l0,0z"/>
    <path stroke="null" opacity="0.9" fill="#191919" fill-rule="nonzero" stroke-width="5" id="path4183" d="m36.786199,127.318415c-10.199868,0 -19.968078,-0.527054 -28.993109,-1.491153l-1.114749,-0.119654l0.524028,-0.957295c2.033961,-3.730288 5.049507,-6.218927 8.86086,-7.78714c3.811353,-1.568213 8.406555,-2.242285 13.748626,-2.485256c10.684131,-0.485942 24.377474,0.775029 40.731363,0.589097c15.140595,-0.172123 27.29033,-0.553373 37.053638,-0.699557l0.342993,1.399109c-14.588869,6.973558 -40.964367,11.551849 -71.15365,11.551849zm0,-1.472737c27.796959,0 52.364579,-3.970128 67.104342,-9.931826c-9.132174,0.171542 -19.882654,0.473044 -33.328272,0.625905c-16.445034,0.18695 -30.17703,-1.075738 -40.674197,-0.598297c-5.248577,0.23872 -9.685486,0.914691 -13.234122,2.374798c-3.187105,1.311369 -5.636032,3.285505 -7.469797,6.157924c8.630742,0.878647 17.907804,1.371495 27.602046,1.371495z"/>
   </g>
  </g>
 </g>
</svg>